<svg width="96" height="96" viewBox="0 0 96 96" fill="none" xmlns="http://www.w3.org/2000/svg">
<g filter="url(#filter0_d_685_39408)">
<path d="M38.0029 78C43.5218 78 48.0009 73.52 48.0009 68V58H38.0029C32.484 58 28.0049 62.48 28.0049 68C28.0049 73.52 32.484 78 38.0029 78Z" fill="#0ACF83"/>
</g>
<g filter="url(#filter1_d_685_39408)">
<path d="M28.0049 48C28.0049 42.48 32.484 38 38.0029 38H48.0009V58H38.0029C32.484 58 28.0049 53.52 28.0049 48Z" fill="#A259FF"/>
</g>
<g filter="url(#filter2_d_685_39408)">
<path d="M28.0049 28C28.0049 22.48 32.484 18 38.0029 18H48.0009V38H38.0029C32.484 38 28.0049 33.52 28.0049 28Z" fill="#F24E1E"/>
</g>
<g filter="url(#filter3_d_685_39408)">
<path d="M48.001 18H57.999C63.5179 18 67.997 22.48 67.997 28C67.997 33.52 63.5179 38 57.999 38H48.001V18Z" fill="#FF7262"/>
</g>
<g filter="url(#filter4_d_685_39408)">
<path d="M67.997 48C67.997 53.52 63.5179 58 57.999 58C52.4801 58 48.001 53.52 48.001 48C48.001 42.48 52.4801 38 57.999 38C63.5179 38 67.997 42.48 67.997 48Z" fill="#1ABCFE"/>
</g>
<defs>
<filter id="filter0_d_685_39408" x="25.0049" y="56" width="23.9961" height="24" filterUnits="userSpaceOnUse" color-interpolation-filters="sRGB">
<feFlood flood-opacity="0" result="BackgroundImageFix"/>
<feColorMatrix in="SourceAlpha" type="matrix" values="0 0 0 0 0 0 0 0 0 0 0 0 0 0 0 0 0 0 127 0" result="hardAlpha"/>
<feOffset dx="-1"/>
<feGaussianBlur stdDeviation="1"/>
<feComposite in2="hardAlpha" operator="out"/>
<feColorMatrix type="matrix" values="0 0 0 0 0 0 0 0 0 0 0 0 0 0 0 0 0 0 0.24 0"/>
<feBlend mode="normal" in2="BackgroundImageFix" result="effect1_dropShadow_685_39408"/>
<feBlend mode="normal" in="SourceGraphic" in2="effect1_dropShadow_685_39408" result="shape"/>
</filter>
<filter id="filter1_d_685_39408" x="25.0049" y="36" width="23.9961" height="24" filterUnits="userSpaceOnUse" color-interpolation-filters="sRGB">
<feFlood flood-opacity="0" result="BackgroundImageFix"/>
<feColorMatrix in="SourceAlpha" type="matrix" values="0 0 0 0 0 0 0 0 0 0 0 0 0 0 0 0 0 0 127 0" result="hardAlpha"/>
<feOffset dx="-1"/>
<feGaussianBlur stdDeviation="1"/>
<feComposite in2="hardAlpha" operator="out"/>
<feColorMatrix type="matrix" values="0 0 0 0 0 0 0 0 0 0 0 0 0 0 0 0 0 0 0.24 0"/>
<feBlend mode="normal" in2="BackgroundImageFix" result="effect1_dropShadow_685_39408"/>
<feBlend mode="normal" in="SourceGraphic" in2="effect1_dropShadow_685_39408" result="shape"/>
</filter>
<filter id="filter2_d_685_39408" x="25.0049" y="16" width="23.9961" height="24" filterUnits="userSpaceOnUse" color-interpolation-filters="sRGB">
<feFlood flood-opacity="0" result="BackgroundImageFix"/>
<feColorMatrix in="SourceAlpha" type="matrix" values="0 0 0 0 0 0 0 0 0 0 0 0 0 0 0 0 0 0 127 0" result="hardAlpha"/>
<feOffset dx="-1"/>
<feGaussianBlur stdDeviation="1"/>
<feComposite in2="hardAlpha" operator="out"/>
<feColorMatrix type="matrix" values="0 0 0 0 0 0 0 0 0 0 0 0 0 0 0 0 0 0 0.24 0"/>
<feBlend mode="normal" in2="BackgroundImageFix" result="effect1_dropShadow_685_39408"/>
<feBlend mode="normal" in="SourceGraphic" in2="effect1_dropShadow_685_39408" result="shape"/>
</filter>
<filter id="filter3_d_685_39408" x="46.001" y="16" width="23.9961" height="24" filterUnits="userSpaceOnUse" color-interpolation-filters="sRGB">
<feFlood flood-opacity="0" result="BackgroundImageFix"/>
<feColorMatrix in="SourceAlpha" type="matrix" values="0 0 0 0 0 0 0 0 0 0 0 0 0 0 0 0 0 0 127 0" result="hardAlpha"/>
<feOffset/>
<feGaussianBlur stdDeviation="1"/>
<feComposite in2="hardAlpha" operator="out"/>
<feColorMatrix type="matrix" values="0 0 0 0 0 0 0 0 0 0 0 0 0 0 0 0 0 0 0.24 0"/>
<feBlend mode="normal" in2="BackgroundImageFix" result="effect1_dropShadow_685_39408"/>
<feBlend mode="normal" in="SourceGraphic" in2="effect1_dropShadow_685_39408" result="shape"/>
</filter>
<filter id="filter4_d_685_39408" x="46.001" y="36" width="23.9961" height="24" filterUnits="userSpaceOnUse" color-interpolation-filters="sRGB">
<feFlood flood-opacity="0" result="BackgroundImageFix"/>
<feColorMatrix in="SourceAlpha" type="matrix" values="0 0 0 0 0 0 0 0 0 0 0 0 0 0 0 0 0 0 127 0" result="hardAlpha"/>
<feOffset/>
<feGaussianBlur stdDeviation="1"/>
<feComposite in2="hardAlpha" operator="out"/>
<feColorMatrix type="matrix" values="0 0 0 0 0 0 0 0 0 0 0 0 0 0 0 0 0 0 0.24 0"/>
<feBlend mode="normal" in2="BackgroundImageFix" result="effect1_dropShadow_685_39408"/>
<feBlend mode="normal" in="SourceGraphic" in2="effect1_dropShadow_685_39408" result="shape"/>
</filter>
</defs>
</svg>
