<svg width="66" height="66" viewBox="0 0 66 66" fill="none" xmlns="http://www.w3.org/2000/svg">
<rect width="66" height="66" fill="#2776EC"/>
<path d="M18.4437 24.9292C16.1005 22.586 16.1005 18.787 18.4437 16.4439V16.4439C20.7868 14.1007 24.5858 14.1007 26.929 16.4439L29.7574 19.2723C32.1005 21.6155 32.1005 25.4144 29.7574 27.7576L25.5148 32.0002L18.4437 24.9292Z" fill="white"/>
<path d="M26.9289 49.5567C24.5858 51.8998 20.7868 51.8998 18.4436 49.5567V49.5567C16.1005 47.2135 16.1005 43.4145 18.4436 41.0714L25.5147 34.0003L29.7573 38.243C32.1005 40.5861 32.1005 44.3851 29.7573 46.7282L26.9289 49.5567Z" fill="white"/>
<path d="M39.0711 16.4438C41.4142 14.1007 45.2132 14.1007 47.5564 16.4438V16.4438C49.8995 18.787 49.8995 22.5859 47.5564 24.9291L40.4853 32.0002L36.2427 27.7575C33.8995 25.4144 33.8995 21.6154 36.2427 19.2722L39.0711 16.4438Z" fill="white"/>
<path d="M47.5563 41.0713C49.8995 43.4145 49.8995 47.2135 47.5563 49.5566V49.5566C45.2132 51.8998 41.4142 51.8998 39.071 49.5566L36.2426 46.7282C33.8995 44.385 33.8995 40.586 36.2426 38.2429L40.4852 34.0003L47.5563 41.0713Z" fill="white"/>
</svg>
