<svg width="96" height="96" viewBox="0 0 96 96" fill="none" xmlns="http://www.w3.org/2000/svg">
<g clip-path="url(#clip0_685_39446)">
<path d="M23.0069 20.5811L56.0762 18.0961C60.0904 17.7138 61.1417 18.0005 63.7222 19.8165L74.3312 27.2714C76.0515 28.5139 76.625 28.8962 76.625 30.3298V71.1408C76.625 73.7213 75.6692 75.2505 72.4197 75.4417L33.9981 77.7355C31.5131 77.8311 30.3662 77.5444 29.1237 75.9196L21.3821 65.8841C19.9485 63.9726 19.375 62.6345 19.375 61.0097V24.6909C19.375 22.5882 20.3308 20.7722 23.0069 20.5811Z" fill="white"/>
<path fill-rule="evenodd" clip-rule="evenodd" d="M56.0762 18.0961L23.0069 20.5811C20.3308 20.7723 19.375 22.5882 19.375 24.6909V61.0098C19.375 62.6345 19.9485 64.0682 21.3821 65.8841L29.1237 76.0152C30.3662 77.64 31.6087 78.0223 33.9981 77.8311L72.4197 75.5373C75.6692 75.3461 76.625 73.8169 76.625 71.2364V30.3299C76.625 28.9918 76.1471 28.6095 74.5223 27.4626C74.4268 27.367 74.3312 27.367 74.2356 27.2714L63.7222 19.9121C61.2373 18.0006 60.1859 17.8094 56.0762 18.0961ZM34.8583 29.6608C31.7043 29.852 31.0353 29.9476 29.2193 28.4183L24.7273 24.882C24.2494 24.4042 24.4405 23.8307 25.683 23.7351L57.5098 21.4413C60.1859 21.2502 61.524 22.1103 62.5753 22.9705L68.0232 26.8891C68.3099 26.9847 68.8833 27.6537 68.1187 27.6537L35.2406 29.6608H34.8583ZM31.2264 70.8541V36.16C31.2264 34.6308 31.7043 33.9618 33.0424 33.8662L70.7949 31.6679C72.0374 31.5724 72.6108 32.337 72.6108 33.8662V68.2735C72.6108 69.8027 72.3241 71.0452 70.317 71.1408L34.1893 73.2435C32.1822 73.4346 31.2264 72.67 31.2264 70.8541ZM66.8763 38.0715C67.0674 39.1229 66.8762 40.1742 65.8249 40.2698L64.1045 40.6521V66.2664C62.5753 67.1266 61.2373 67.5089 60.0904 67.5089C58.2744 67.5089 57.7965 66.9355 56.3629 65.2151L44.8938 47.2468V64.5461L48.5257 65.4062C48.5257 65.4062 48.5257 67.5089 45.6584 67.5089L37.63 67.9868C37.4389 67.5089 37.63 66.362 38.3946 66.1709L40.4973 65.5974V42.6592L37.63 42.3724C37.4389 41.3211 38.0123 39.7919 39.6371 39.6963L48.2389 39.1229L60.0904 57.2823V41.2255L57.0319 40.8432C56.8408 39.6007 57.701 38.645 58.8479 38.5494L66.8763 38.0715Z" fill="black"/>
</g>
<defs>
<clipPath id="clip0_685_39446">
<rect width="57.25" height="59.8306" fill="white" transform="translate(19.375 18)"/>
</clipPath>
</defs>
</svg>
