<svg width="512" height="512" viewBox="0 0 512 512" fill="none" xmlns="http://www.w3.org/2000/svg">
<g clip-path="url(#clip0_245_83)">
<rect width="256" height="512" fill="black"/>
<rect x="256" width="256" height="512" fill="#FFC000"/>
<g filter="url(#filter0_d_245_83)">
<path d="M278.712 401.84C262.072 401.84 249.272 399.408 240.312 394.544C231.352 389.68 225.08 382.64 221.496 373.424C218.168 363.952 216.504 352.56 216.504 339.248V218.672H195V177.584H216.504V110H279.864V177.584H311.352V218.672H279.864V333.104C279.864 339.504 281.656 344.112 285.24 346.928C289.08 349.744 293.816 351.152 299.448 351.152C302.776 351.152 305.848 351.024 308.664 350.768C311.48 350.256 314.04 349.872 316.344 349.616V398.768C313.016 399.28 307.768 399.92 300.6 400.688C293.432 401.456 286.136 401.84 278.712 401.84Z" fill="white"/>
</g>
</g>
<defs>
<filter id="filter0_d_245_83" x="183" y="98" width="145.344" height="315.84" filterUnits="userSpaceOnUse" color-interpolation-filters="sRGB">
<feFlood flood-opacity="0" result="BackgroundImageFix"/>
<feColorMatrix in="SourceAlpha" type="matrix" values="0 0 0 0 0 0 0 0 0 0 0 0 0 0 0 0 0 0 127 0" result="hardAlpha"/>
<feOffset/>
<feGaussianBlur stdDeviation="6"/>
<feComposite in2="hardAlpha" operator="out"/>
<feColorMatrix type="matrix" values="0 0 0 0 0 0 0 0 0 0 0 0 0 0 0 0 0 0 0.25 0"/>
<feBlend mode="normal" in2="BackgroundImageFix" result="effect1_dropShadow_245_83"/>
<feBlend mode="normal" in="SourceGraphic" in2="effect1_dropShadow_245_83" result="shape"/>
</filter>
<clipPath id="clip0_245_83">
<rect width="512" height="512" fill="white"/>
</clipPath>
</defs>
</svg>
